<svg xmlns="http://www.w3.org/2000/svg" width="24" height="24" viewBox="0 0 24 24">
  <path fill="none" stroke="white" stroke-linecap="round" stroke-linejoin="round" stroke-width="1.5" d="M12 15.5a3.5 3.5 0 1 0 0-7a3.5 3.5 0 0 0 0 7Z"/>
  <path fill="none" stroke="white" stroke-linecap="round" stroke-linejoin="round" stroke-width="1.5" d="M19.43 12.98c.04-.32.07-.65.07-.98s-.02-.66-.07-.98l2.11-1.65a.5.5 0 0 0 .12-.64l-2-3.46a.5.5 0 0 0-.61-.22l-2.49 1a7.42 7.42 0 0 0-1.69-.98L14.5 2.42A.5.5 0 0 0 14 2h-4a.5.5 0 0 0-.5.42L9.13 5.07c-.6.24-1.17.57-1.69.98l-2.49-1a.5.5 0 0 0-.61.22l-2 3.46a.5.5 0 0 0 .12.64l2.11 1.65c-.04.32-.07.65-.07.98s.02.66.07.98l-2.11 1.65a.5.5 0 0 0-.12.64l2 3.46a.5.5 0 0 0 .61.22l2.49-1c.52.41 1.09.74 1.69.98l.37 2.65a.5.5 0 0 0 .5.42h4a.5.5 0 0 0 .5-.42l.37-2.65c.6-.24 1.17-.57 1.69-.98l2.49 1a.5.5 0 0 0 .61-.22l2-3.46a.5.5 0 0 0-.12-.64l-2.11-1.65Z"/>
</svg>
